*
G04 Mass Parameters ***
*
G04 Image ***
*
%INM:\PROJECTS\ORCAD\ATMEGADIMMER\HARDWARE\DIMMER_ATMEGA.SST*%
%ICAS*%
%MOIN*%
%IPPOS*%
%ASAXBY*%
G74*%FSLAN2X34Y34*%
*
G04 Aperture Definitions ***
*
%ADD10C,0.0620*%
%ADD11C,0.0550*%
%ADD12R,0.0580X0.0580*%
%ADD13C,0.0520*%
%ADD14R,0.0520X0.0520*%
%ADD15C,0.0750*%
%ADD16R,0.0750X0.0750*%
%ADD17C,0.0580*%
%ADD18C,0.0630*%
%ADD19R,0.0630X0.0630*%
%ADD20C,0.0610*%
%ADD21C,0.0787*%
%ADD22R,0.0610X0.0610*%
%ADD23C,0.0984*%
%ADD24R,0.0984X0.0984*%
%ADD25C,0.1100*%
%ADD26C,0.0010*%
%ADD27C,0.0100*%
%ADD28C,0.0500*%
%ADD29R,0.0600X0.0600*%
%ADD30C,0.1000*%
%ADD31C,0.0080*%
%ADD32C,0.0120*%
%ADD33C,0.0787*%
%ADD34C,0.0700*%
%ADD35R,0.0780X0.0780*%
%ADD36C,0.0720*%
%ADD37R,0.0720X0.0720*%
%ADD38C,0.0950*%
%ADD39R,0.0950X0.0950*%
%ADD40C,0.0780*%
%ADD41C,0.0866*%
%ADD42R,0.0866X0.0866*%
%ADD43C,0.0810*%
%ADD44C,0.0945*%
%ADD45R,0.0810X0.0810*%
%ADD46C,0.1181*%
%ADD47R,0.1181X0.1181*%
%ADD48C,0.0800*%
%ADD49C,0.1400*%
%ADD50C,0.0500*%
%ADD51C,0.0750*%
%ADD52C,0.0669*%
%ADD53C,0.0670*%
%ADD54C,0.1050*%
%ADD55C,0.0550*%
%ADD56C,0.0098*%
%ADD57C,0.0078*%
%ADD58C,0.0140*%
%ADD59C,0.0140*%
%ADD60C,0.0118*%
%ADD61C,0.0140*%
%ADD62C,0.0140*%
%ADD63C,0.0709*%
%ADD64R,0.0669X0.0669*%
%ADD65C,0.0197*%
%ADD66C,0.0590*%
%ADD67C,0.0394*%
%ADD68C,0.0140*%
*
G04 Plot Data ***
*
G54D27*
G01X0023083Y0036008D02*
X0023166Y0036092D01*
X0023250Y0036133D01*
X0023416D01*
X0023500Y0036092D01*
X0023583Y0036008D01*
Y0035925D01*
X0023500Y0035842D01*
X0023416Y0035800D01*
X0023250D01*
X0023166Y0035842D01*
X0023083Y0035925D01*
Y0036008D01*
X0023333Y0036667D02*
Y0036417D01*
X0023250Y0036375D01*
X0023166D01*
X0023083Y0036417D01*
Y0036667D01*
X0023166Y0036708D01*
X0023250D01*
X0023583Y0036542D01*
X0034983Y0026083D02*
X0034650D01*
X0034983Y0026416D01*
Y0026500D01*
X0034942Y0026583D01*
X0034692D01*
X0034650Y0026500D01*
X0034408Y0026083D02*
X0034117D01*
Y0026583D01*
X0033875Y0026333D02*
X0033542D01*
X0033875Y0026083D02*
Y0026583D01*
X0033542Y0026083D02*
Y0026583D01*
X0039205Y0044239D02*
X0038939D01*
X0038894Y0044328D01*
Y0044417D01*
X0038939Y0044505D01*
X0039205D01*
X0039250Y0044417D01*
Y0044328D01*
X0039072Y0043972D01*
X0038294Y0044061D02*
X0038339Y0043972D01*
X0038605D01*
X0038650Y0044061D01*
Y0044239D01*
X0038561Y0044328D01*
X0038294D01*
Y0044505D01*
X0038650D01*
X0011455Y0044739D02*
X0011500Y0044828D01*
Y0044917D01*
X0011455Y0045005D01*
X0011189D01*
X0011144Y0044917D01*
Y0044828D01*
X0011189Y0044739D01*
X0011455D01*
X0011500Y0044650D01*
Y0044561D01*
X0011455Y0044472D01*
X0011189D01*
X0011144Y0044561D01*
Y0044650D01*
X0011189Y0044739D01*
X0010544Y0044561D02*
X0010589Y0044472D01*
X0010855D01*
X0010900Y0044561D01*
Y0044739D01*
X0010811Y0044828D01*
X0010544D01*
Y0045005D01*
X0010900D01*
X0037983Y0017722D02*
X0038250Y0018255D01*
X0037894D01*
X0037294Y0017811D02*
X0037339Y0017722D01*
X0037605D01*
X0037650Y0017811D01*
Y0017989D01*
X0037561Y0018078D01*
X0037294D01*
Y0018255D01*
X0037650D01*
X0010939Y0017739D02*
X0011205D01*
X0011250Y0017650D01*
Y0017561D01*
X0011205Y0017472D01*
X0010939D01*
X0010894Y0017561D01*
Y0017650D01*
X0011072Y0018005D01*
X0010294Y0017561D02*
X0010339Y0017472D01*
X0010605D01*
X0010650Y0017561D01*
Y0017739D01*
X0010561Y0017828D01*
X0010294D01*
Y0018005D01*
X0010650D01*
X0011417Y0029733D02*
Y0029400D01*
X0011084Y0029733D01*
X0011000D01*
X0010917Y0029692D01*
Y0029442D01*
X0011000Y0029400D01*
Y0029158D02*
X0010917Y0029117D01*
Y0028867D01*
X0011000Y0028825D01*
X0011084D01*
X0011167Y0028867D01*
Y0029117D01*
X0011250Y0029158D01*
X0011334D01*
X0011417Y0029117D01*
Y0028867D01*
X0011334Y0028825D01*
X0011417Y0028583D02*
X0010917Y0028333D01*
Y0028583D02*
X0011417Y0028333D01*
X0039083Y0039808D02*
Y0039975D01*
Y0039892D02*
X0039583D01*
X0039500Y0039975D01*
X0039083Y0040592D02*
X0039583D01*
X0039083Y0040633D02*
Y0040383D01*
X0039250Y0040300D01*
X0039416D01*
X0039583Y0040383D01*
Y0040633D01*
Y0040875D02*
X0039416D01*
X0039083Y0041042D01*
X0039416Y0041208D01*
X0039583D01*
X0015192Y0025833D02*
X0015025D01*
X0015108D02*
Y0026333D01*
X0015025Y0026249D01*
X0014700Y0026333D02*
Y0025916D01*
X0014658Y0025833D01*
X0014533Y0026083D01*
Y0026166D02*
Y0026083D01*
X0014408Y0025833D01*
X0014367Y0025916D01*
Y0026333D01*
X0014125Y0026249D02*
X0014083Y0026333D01*
X0013833D01*
X0013792Y0026249D01*
Y0026166D01*
X0013833Y0026083D01*
X0014083D01*
X0014125Y0025999D01*
Y0025916D01*
X0014083Y0025833D01*
X0013833D01*
X0013792Y0025916D01*
X0013617Y0023274D02*
X0013450D01*
X0013534D02*
Y0023774D01*
X0013450Y0023690D01*
X0013125Y0023774D02*
Y0023357D01*
X0013084Y0023274D01*
X0012959Y0023524D01*
Y0023607D02*
Y0023524D01*
X0012834Y0023274D01*
X0012792Y0023357D01*
Y0023774D01*
X0012550Y0023690D02*
X0012509Y0023774D01*
X0012259D01*
X0012217Y0023690D01*
Y0023607D01*
X0012259Y0023524D01*
X0012509D01*
X0012550Y0023440D01*
Y0023357D01*
X0012509Y0023274D01*
X0012259D01*
X0012217Y0023357D01*
X0025617Y0045833D02*
X0025450D01*
X0025533D02*
Y0046333D01*
X0025450Y0046250D01*
X0025125Y0045916D02*
X0025083Y0045833D01*
X0024833D01*
X0024792Y0045916D01*
Y0046250D01*
X0024833Y0046333D01*
X0025083D01*
X0025125Y0046250D01*
X0011417Y0034650D02*
Y0034483D01*
Y0034567D02*
X0010917D01*
X0011000Y0034483D01*
Y0034158D02*
X0010917Y0034117D01*
Y0033867D01*
X0011000Y0033825D01*
X0011084D01*
X0011167Y0033867D01*
Y0034117D01*
X0011250Y0034158D01*
X0011334D01*
X0011417Y0034117D01*
Y0033867D01*
X0011334Y0033825D01*
X0011417Y0033583D02*
X0010917Y0033333D01*
Y0033583D02*
X0011417Y0033333D01*
X0029017Y0022667D02*
X0029350D01*
X0029017Y0022333D01*
Y0022250D01*
X0029058Y0022167D01*
X0029308D01*
X0029350Y0022250D01*
X0029925Y0022417D02*
X0029675D01*
X0029592Y0022333D01*
Y0022250D01*
X0029675Y0022167D01*
X0029925D01*
Y0022667D01*
X0030167D02*
X0030417Y0022167D01*
X0030167D02*
X0030417Y0022667D01*
X0018416Y0025350D02*
X0018333Y0025267D01*
Y0025100D01*
X0018416Y0025017D01*
X0018500D01*
X0018666Y0025183D01*
X0018833Y0025017D01*
Y0025350D01*
X0018583Y0025925D02*
Y0025675D01*
X0018666Y0025592D01*
X0018750D01*
X0018833Y0025675D01*
Y0025925D01*
X0018333D01*
Y0026167D02*
X0018833Y0026417D01*
Y0026167D02*
X0018333Y0026417D01*
X0018600Y0019667D02*
X0018767D01*
X0018683D02*
Y0019167D01*
X0018767Y0019250D01*
X0019258Y0019500D02*
X0019092Y0019667D01*
X0019425Y0019583D02*
X0019383Y0019667D01*
X0019217D01*
X0019175Y0019583D01*
X0019092Y0019500D01*
Y0019250D01*
X0019133Y0019167D01*
X0019383D01*
X0019425Y0019250D01*
Y0019583D01*
X0019667Y0019667D02*
X0019917D01*
X0019667Y0019167D01*
X0019917D01*
X0011167Y0018150D02*
Y0017983D01*
Y0018067D02*
X0010667D01*
X0010750Y0017983D01*
X0010917Y0017325D02*
Y0017575D01*
X0010833Y0017658D01*
X0010750D01*
X0010667Y0017575D01*
Y0017325D01*
X0011167D01*
Y0017083D02*
X0010667Y0016833D01*
Y0017083D02*
X0011167Y0016833D01*
X0027917Y0035025D02*
Y0034692D01*
X0027583Y0035025D01*
X0027500D01*
X0027417Y0034983D01*
Y0034733D01*
X0027500Y0034692D01*
X0027917Y0034158D02*
X0027417D01*
X0027917Y0034117D02*
Y0034367D01*
X0027750Y0034450D01*
X0027583D01*
X0027417Y0034367D01*
Y0034117D01*
Y0033875D02*
X0027583D01*
X0027917Y0033708D01*
X0027583Y0033542D01*
X0027417D01*
X0015442Y0044833D02*
X0015275D01*
X0015358D02*
Y0045333D01*
X0015275Y0045250D01*
X0014950Y0045333D02*
Y0044916D01*
X0014908Y0044833D01*
X0014658D01*
X0014617Y0044916D01*
Y0045333D01*
X0014292Y0045083D02*
X0014042D01*
Y0044833D02*
Y0045333D01*
X0014375D01*
X0013000Y0036250D02*
Y0032250D01*
X0016000D01*
Y0036250D01*
X0013000D01*
X0014000Y0032250D02*
Y0036250D01*
X0013000Y0031250D02*
Y0027250D01*
X0016000D01*
Y0031250D01*
X0013000D01*
X0014000Y0027250D02*
Y0031250D01*
G54D31*
G01X0029650Y0017592D02*
X0029872D01*
X0029650Y0017370D01*
Y0017314D01*
X0029678Y0017259D01*
X0029845D01*
X0029872Y0017314D01*
X0030060Y0017537D02*
X0030088Y0017592D01*
X0030255D01*
X0030282Y0017537D01*
Y0017314D01*
X0030255Y0017259D01*
X0030088D01*
X0030060Y0017314D01*
X0030470Y0017592D02*
X0030581D01*
X0030526D02*
Y0017259D01*
X0030470D02*
X0030581D01*
X0025270Y0033817D02*
X0025326Y0033762D01*
X0025353Y0033706D01*
Y0033595D01*
X0025326Y0033539D01*
X0025270Y0033484D01*
X0025214D01*
X0025159Y0033539D01*
X0025131Y0033595D01*
Y0033706D01*
X0025159Y0033762D01*
X0025214Y0033817D01*
X0025270D01*
X0025541D02*
X0025652D01*
X0025597D02*
Y0033484D01*
X0025652Y0033539D01*
X0025979Y0033651D02*
X0025895Y0033817D01*
X0026118Y0033651D02*
X0025951D01*
X0025895Y0033595D01*
Y0033539D01*
X0025951Y0033484D01*
X0026118D01*
Y0033817D01*
X0019817Y0031625D02*
Y0031514D01*
Y0031569D02*
X0019484D01*
X0019540Y0031514D01*
Y0031270D02*
X0019484Y0031243D01*
Y0031076D01*
X0019540Y0031048D01*
X0019595D01*
X0019651Y0031076D01*
Y0031243D01*
X0019706Y0031270D01*
X0019762D01*
X0019817Y0031243D01*
Y0031076D01*
X0019762Y0031048D01*
X0019484Y0030860D02*
X0019595D01*
X0019817Y0030749D01*
X0019595Y0030638D01*
X0019484D01*
X0032442Y0030716D02*
Y0030605D01*
Y0030660D02*
X0032109D01*
X0032164Y0030605D01*
X0032442Y0030362D02*
Y0030167D01*
X0032109D01*
X0032276Y0029979D02*
Y0029757D01*
X0032442Y0029979D02*
X0032109D01*
X0032442Y0029757D02*
X0032109D01*
X0029458Y0036887D02*
X0029402Y0036942D01*
X0029291D01*
X0029236Y0036887D01*
Y0036831D01*
X0029347Y0036720D01*
X0029236Y0036609D01*
X0029458D01*
X0029729Y0036776D02*
X0029646Y0036942D01*
X0029868Y0036776D02*
X0029701D01*
X0029646Y0036720D01*
Y0036665D01*
X0029701Y0036609D01*
X0029868D01*
Y0036942D01*
X0036736Y0032567D02*
X0036958D01*
X0036736Y0032345D01*
Y0032290D01*
X0036763Y0032234D01*
X0036930D01*
X0036958Y0032290D01*
X0037146Y0032512D02*
X0037173Y0032567D01*
X0037340D01*
X0037368Y0032512D01*
Y0032290D01*
X0037340Y0032234D01*
X0037173D01*
X0037146Y0032290D01*
X0023131Y0020317D02*
X0023242D01*
X0023187D02*
Y0019984D01*
X0023242Y0020040D01*
X0023541Y0020151D02*
X0023708D01*
Y0020317D02*
Y0019984D01*
X0023486D01*
X0023896Y0020040D02*
X0023923Y0019984D01*
X0024090D01*
X0024118Y0020040D01*
Y0020095D01*
X0024090Y0020151D01*
X0023923D01*
X0023896Y0020206D01*
Y0020262D01*
X0023923Y0020317D01*
X0024090D01*
X0024118Y0020262D01*
X0022934Y0024166D02*
X0023045D01*
X0022990D02*
Y0023832D01*
X0023045Y0023888D01*
X0023344Y0023999D02*
X0023511D01*
Y0024166D02*
Y0023832D01*
X0023289D01*
X0023699Y0023888D02*
X0023726Y0023832D01*
X0023893D01*
X0023921Y0023888D01*
Y0023943D01*
X0023893Y0023999D01*
X0023726D01*
X0023699Y0024054D01*
Y0024110D01*
X0023726Y0024166D01*
X0023893D01*
X0023921Y0024110D01*
X0023922Y0030702D02*
Y0030479D01*
X0023699Y0030702D01*
X0023644D01*
X0023588Y0030674D01*
Y0030507D01*
X0023644Y0030479D01*
X0023866Y0030292D02*
X0023922Y0030264D01*
Y0030097D01*
X0023866Y0030069D01*
X0023644D01*
X0023588Y0030097D01*
Y0030264D01*
X0023644Y0030292D01*
X0023922Y0029687D02*
X0023866Y0029659D01*
X0023644D01*
X0023588Y0029687D01*
Y0029854D01*
X0023644Y0029882D01*
X0023866D01*
X0023922Y0029854D01*
Y0029687D01*
X0025549Y0027967D02*
X0025772D01*
X0025549Y0027745D01*
Y0027690D01*
X0025577Y0027634D01*
X0025744D01*
X0025772Y0027690D01*
X0025959Y0027912D02*
X0025987Y0027967D01*
X0026154D01*
X0026182Y0027912D01*
Y0027690D01*
X0026154Y0027634D01*
X0025987D01*
X0025959Y0027690D01*
X0026564Y0027967D02*
X0026592Y0027912D01*
Y0027690D01*
X0026564Y0027634D01*
X0026397D01*
X0026369Y0027690D01*
Y0027912D01*
X0026397Y0027967D01*
X0026564D01*
X0036319Y0032182D02*
X0036208D01*
X0036264D02*
Y0032516D01*
X0036208Y0032460D01*
X0035965Y0032238D02*
X0035937Y0032182D01*
X0035770D01*
X0035742Y0032238D01*
Y0032460D01*
X0035770Y0032516D01*
X0035937D01*
X0035965Y0032460D01*
X0035555Y0032182D02*
X0035444D01*
X0035499D02*
Y0032516D01*
X0035555D02*
X0035444D01*
X0025187Y0035567D02*
X0025298D01*
X0025242D02*
Y0035234D01*
X0025298Y0035289D01*
X0025541Y0035567D02*
X0025652D01*
X0025597D02*
Y0035234D01*
X0025652Y0035289D01*
X0025979Y0035401D02*
X0025895Y0035567D01*
X0026118Y0035401D02*
X0025951D01*
X0025895Y0035345D01*
Y0035289D01*
X0025951Y0035234D01*
X0026118D01*
Y0035567D01*
X0026971Y0030800D02*
Y0030689D01*
Y0030744D02*
X0026637D01*
X0026693Y0030689D01*
X0026915Y0030445D02*
X0026971Y0030418D01*
Y0030251D01*
X0026915Y0030223D01*
X0026693D01*
X0026637Y0030251D01*
Y0030418D01*
X0026693Y0030445D01*
X0026971Y0029841D02*
X0026915Y0029813D01*
X0026693D01*
X0026637Y0029841D01*
Y0030008D01*
X0026693Y0030035D01*
X0026915D01*
X0026971Y0030008D01*
Y0029841D01*
X0028370Y0032532D02*
X0028259D01*
X0028314D02*
Y0032866D01*
X0028259Y0032810D01*
X0028016Y0032588D02*
X0027988Y0032532D01*
X0027821D01*
X0027793Y0032588D01*
Y0032810D01*
X0027821Y0032866D01*
X0027988D01*
X0028016Y0032810D01*
X0027411Y0032532D02*
X0027383Y0032588D01*
Y0032810D01*
X0027411Y0032866D01*
X0027578D01*
X0027606Y0032810D01*
Y0032588D01*
X0027578Y0032532D01*
X0027411D01*
X0023933Y0031541D02*
Y0031652D01*
Y0031597D02*
X0024266D01*
X0024210Y0031652D01*
X0024099Y0031979D02*
X0023933Y0031895D01*
X0024099Y0032118D02*
Y0031951D01*
X0024155Y0031895D01*
X0024210D01*
X0024266Y0031951D01*
Y0032118D01*
X0023933D01*
X0030625Y0020500D02*
Y0019500D01*
Y0019000D01*
X0016875D01*
Y0021000D01*
X0030625D01*
Y0020500D01*
X0030375D01*
Y0019500D01*
X0030625D01*
X0026500Y0035000D02*
X0024000D01*
Y0034500D01*
Y0034000D01*
X0026500D01*
Y0034500D01*
Y0035000D01*
X0026750Y0034500D02*
X0026500D01*
X0023750D02*
X0024000D01*
X0020100Y0029650D02*
Y0033850D01*
X0022350D01*
Y0029650D01*
X0020100D01*
X0020650Y0033850D02*
Y0029650D01*
X0026500Y0036750D02*
X0024000D01*
Y0036250D01*
Y0035750D01*
X0026500D01*
Y0036250D01*
Y0036750D01*
X0026750Y0036250D02*
X0026500D01*
X0033780Y0031030D02*
X0033942Y0030786D01*
X0033999Y0030500D01*
X0033942Y0030214D01*
X0033780Y0029970D01*
X0032720D02*
X0032558Y0030214D01*
X0032501Y0030500D01*
X0032558Y0030786D01*
X0032720Y0031030D01*
X0024750Y0040750D02*
Y0037250D01*
X0032750D01*
Y0040750D01*
X0024750D01*
X0026625Y0029750D02*
X0026375D01*
Y0030750D01*
X0026625D01*
Y0031250D01*
X0024275D01*
Y0029250D01*
X0026625D01*
Y0030750D01*
X0034400Y0031900D02*
X0038600D01*
Y0029650D01*
X0034400D01*
Y0031900D01*
X0038600Y0031350D02*
X0034400D01*
X0023750Y0036250D02*
X0024000D01*
X0027375Y0029750D02*
Y0030750D01*
Y0031250D01*
X0031125D01*
Y0029250D01*
X0027375D01*
Y0029750D01*
X0027625D01*
Y0030750D01*
X0027375D01*
X0022750Y0032500D02*
Y0030000D01*
X0023250D01*
X0023750D01*
Y0032500D01*
X0023250D01*
X0022750D01*
X0023250Y0032750D02*
Y0032500D01*
Y0029750D02*
Y0030000D01*
G01X0039000Y0035250D02*
G03X0036500Y0037750I0002500J0000000D01*
G03X0034000Y0035250I0000000J0002500D01*
G03X0036500Y0032750I0002500J0000000D01*
G03X0039000Y0035250I0000000J0002500D01*
G54D56*
G01X0029726Y0039177D02*
Y0039440D01*
X0029813Y0039483D01*
X0029901D01*
X0029988Y0039440D01*
Y0039177D01*
X0029901Y0039133D01*
X0029813D01*
X0029464Y0039308D01*
X0029726Y0038762D02*
X0029988Y0038893D01*
X0029726Y0038544D02*
Y0038806D01*
X0029638Y0038893D01*
X0029551D01*
X0029464Y0038806D01*
Y0038544D01*
X0029988D01*
X0032728Y0039325D02*
Y0039587D01*
X0032815Y0039631D01*
X0032903D01*
X0032990Y0039587D01*
Y0039325D01*
X0032903Y0039281D01*
X0032815D01*
X0032465Y0039456D01*
X0032728Y0038910D02*
X0032990Y0039041D01*
X0032728Y0038691D02*
Y0038953D01*
X0032640Y0039041D01*
X0032553D01*
X0032465Y0038953D01*
Y0038691D01*
X0032990D01*
X0033690Y0042596D02*
Y0042334D01*
X0033602Y0042290D01*
X0033515D01*
X0033427Y0042334D01*
Y0042596D01*
X0033515Y0042640D01*
X0033602D01*
X0033952Y0042465D01*
X0033690Y0043011D02*
X0033427Y0042880D01*
X0033690Y0043230D02*
Y0042967D01*
X0033777Y0042880D01*
X0033865D01*
X0033952Y0042967D01*
Y0043230D01*
X0033427D01*
X0034674Y0039545D02*
Y0039283D01*
X0034586Y0039239D01*
X0034499D01*
X0034411Y0039283D01*
Y0039545D01*
X0034499Y0039589D01*
X0034586D01*
X0034936Y0039414D01*
X0034674Y0039960D02*
X0034411Y0039829D01*
X0034674Y0040179D02*
Y0039916D01*
X0034761Y0039829D01*
X0034849D01*
X0034936Y0039916D01*
Y0040179D01*
X0034411D01*
X0025538Y0023212D02*
X0021992D01*
Y0024788D01*
X0025538D01*
Y0023212D01*
G54D57*
G01X0013554Y0022289D02*
Y0024651D01*
X0015915D01*
Y0022289D01*
X0013554D01*
X0033553Y0038106D02*
Y0037910D01*
X0033947D01*
Y0038106D01*
Y0040862D02*
Y0041059D01*
X0033553D01*
Y0040862D01*
X0033947Y0038893D02*
Y0040074D01*
X0033553Y0038893D02*
Y0040074D01*
M02*
