*
G04 Mass Parameters ***
*
G04 Image ***
*
%INM:\PROJECTS\ORCAD\ATMEGADIMMER\HARDWARE\DIMMER_ATMEGA.TOP*%
%ICAS*%
%MOIN*%
%IPPOS*%
%ASAXBY*%
G74*%FSLAN2X34Y34*%
*
G04 Aperture Definitions ***
*
%ADD10C,0.0620*%
%ADD11C,0.0550*%
%ADD12R,0.0580X0.0580*%
%ADD13C,0.0520*%
%ADD14R,0.0520X0.0520*%
%ADD15C,0.0750*%
%ADD16R,0.0750X0.0750*%
%ADD17C,0.0580*%
%ADD18C,0.0630*%
%ADD19R,0.0630X0.0630*%
%ADD20C,0.0610*%
%ADD21C,0.0787*%
%ADD22R,0.0610X0.0610*%
%ADD23C,0.0984*%
%ADD24R,0.0984X0.0984*%
%ADD25C,0.1100*%
%ADD26C,0.0010*%
%ADD27C,0.0100*%
%ADD28C,0.0500*%
%ADD29R,0.0600X0.0600*%
%ADD30C,0.1000*%
%ADD31C,0.0080*%
%ADD32C,0.0120*%
%ADD33C,0.0787*%
%ADD34C,0.0700*%
%ADD35R,0.0780X0.0780*%
%ADD36C,0.0720*%
%ADD37R,0.0720X0.0720*%
%ADD38C,0.0950*%
%ADD39R,0.0950X0.0950*%
%ADD40C,0.0780*%
%ADD41C,0.0866*%
%ADD42R,0.0866X0.0866*%
%ADD43C,0.0810*%
%ADD44C,0.0945*%
%ADD45R,0.0810X0.0810*%
%ADD46C,0.1181*%
%ADD47R,0.1181X0.1181*%
%ADD48C,0.0800*%
%ADD49C,0.1400*%
%ADD50C,0.0500*%
%ADD51C,0.0750*%
%ADD52C,0.0669*%
%ADD53C,0.0670*%
%ADD54C,0.1050*%
%ADD55C,0.0550*%
%ADD56C,0.0098*%
%ADD57C,0.0078*%
%ADD58C,0.0140*%
%ADD59C,0.0140*%
%ADD60C,0.0118*%
%ADD61C,0.0140*%
%ADD62C,0.0140*%
%ADD63C,0.0709*%
%ADD64R,0.0669X0.0669*%
%ADD65C,0.0197*%
%ADD66C,0.0590*%
%ADD67C,0.0394*%
%ADD68C,0.0140*%
*
G04 Plot Data ***
*
G54D26*
G01X0020250Y0038500D02*
X0020500Y0038750D01*
X0022000D01*
Y0034250D01*
X0019750D01*
Y0029250D01*
X0022000D01*
Y0024750D01*
X0020500D01*
X0019500Y0025750D01*
X0018500Y0024750D01*
X0017000D01*
Y0029250D01*
X0019250D01*
Y0034250D01*
X0017000D01*
Y0038750D01*
X0018500D01*
X0019500Y0037750D01*
X0020250Y0038500D01*
X0035500Y0021500D02*
X0032000D01*
Y0027500D01*
X0039000D01*
Y0021500D01*
X0035500D01*
X0023000Y0041250D02*
Y0040000D01*
X0013000D01*
Y0042500D01*
X0023000D01*
Y0041250D01*
X0028500Y0036250D02*
Y0032750D01*
X0032250D01*
Y0036250D01*
X0028500D01*
X0019000Y0024000D02*
X0021250D01*
Y0022500D01*
X0016750D01*
Y0024000D01*
X0019000D01*
X0038500Y0038500D02*
Y0042000D01*
X0034750D01*
Y0038500D01*
X0038500D01*
X0024250Y0043500D02*
Y0041000D01*
X0034250D01*
Y0043500D01*
X0024250D01*
G54D27*
G01X0015500Y0019500D02*
Y0021500D01*
X0013000D01*
Y0016000D01*
X0015500D01*
Y0018250D01*
G54D10*
X0013750Y0022250D03*
X0015718D03*
Y0024710D03*
X0013750D03*
G54D11*
X0031750Y0039000D03*
X0025750D03*
G54D12*
X0030250Y0021500D03*
G54D13*
X0027250Y0036250D03*
X0023250D03*
X0027250Y0034500D03*
X0023250D03*
Y0033250D03*
Y0029250D03*
X0033250Y0031000D03*
G54D14*
Y0030000D03*
G54D15*
X0021250Y0031750D03*
Y0032750D03*
X0036500Y0030750D03*
X0037500D03*
G54D16*
X0021250D03*
X0035500D03*
G54D18*
X0025000Y0031750D03*
Y0028750D03*
X0026000D03*
X0029250D03*
X0030250D03*
Y0031750D03*
X0029250D03*
X0028250D03*
G54D19*
X0026000D03*
X0028250Y0028750D03*
G54D20*
X0022782Y0024000D03*
G54D21*
X0031500Y0033500D03*
X0029500D03*
Y0035500D03*
X0031500D03*
X0035500Y0041250D03*
X0037500D03*
Y0039250D03*
X0035500D03*
X0033750Y0038500D03*
Y0040468D03*
G54D22*
X0023766Y0024000D03*
X0024750D03*
G54D23*
X0015000Y0030250D03*
Y0035250D03*
G54D24*
Y0028250D03*
Y0033250D03*
G54D25*
X0039500Y0042750D03*
X0011750Y0043250D03*
X0038500Y0016500D03*
X0011500Y0016250D03*
G54D28*
X0026750Y0027250D03*
X0028800Y0027260D03*
X0016250Y0019250D03*
X0016270Y0020870D03*
G54D46*
X0019500Y0036750D03*
Y0026750D03*
G54D52*
X0035500Y0035250D03*
G54D63*
X0020000Y0023250D03*
X0018000D03*
X0014750Y0026500D03*
Y0025500D03*
X0030500Y0026250D03*
X0029500D03*
X0014750Y0016750D03*
X0013750D03*
X0014750Y0017750D03*
X0013750D03*
X0014750Y0018750D03*
X0013750D03*
X0014750Y0019750D03*
X0013750D03*
X0014750Y0020750D03*
X0013750D03*
X0029250Y0021500D03*
X0028250D03*
X0027250D03*
X0026250D03*
X0025250D03*
X0024250D03*
X0023250D03*
X0022250D03*
X0021250D03*
X0020250D03*
X0019250D03*
X0018250D03*
X0017250D03*
Y0018500D03*
X0018250D03*
X0019250D03*
X0020250D03*
X0021250D03*
X0022250D03*
X0023250D03*
X0024250D03*
X0025250D03*
X0026250D03*
X0027250D03*
X0028250D03*
X0029250D03*
X0030250D03*
X0033500Y0022500D03*
X0034500D03*
X0035500D03*
X0036500D03*
X0037500D03*
Y0026500D03*
X0036500D03*
X0035500D03*
X0034500D03*
X0033500D03*
X0014000Y0041250D03*
X0022000D03*
X0024750Y0042250D03*
X0033750D03*
G54D64*
X0037500Y0035250D03*
M02*
