*
G04 Mass Parameters ***
*
G04 Image ***
*
%INM:\PROJECTS\ORCAD\ATMEGADIMMER\HARDWARE\DIMMER_ATMEGA.DRD*%
%ICAS*%
%MOIN*%
%IPPOS*%
%ASAXBY*%
G74*%FSLAN2X34Y34*%
*
G04 Aperture Definitions ***
*
%ADD10C,0.0620*%
%ADD11C,0.0550*%
%ADD12R,0.0580X0.0580*%
%ADD13C,0.0520*%
%ADD14R,0.0520X0.0520*%
%ADD15C,0.0750*%
%ADD16R,0.0750X0.0750*%
%ADD17C,0.0580*%
%ADD18C,0.0630*%
%ADD19R,0.0630X0.0630*%
%ADD20C,0.0610*%
%ADD21C,0.0787*%
%ADD22R,0.0610X0.0610*%
%ADD23C,0.0984*%
%ADD24R,0.0984X0.0984*%
%ADD25C,0.1100*%
%ADD26C,0.0010*%
%ADD27C,0.0100*%
%ADD28C,0.0500*%
%ADD29R,0.0600X0.0600*%
%ADD30C,0.1000*%
%ADD31C,0.0080*%
%ADD32C,0.0120*%
%ADD33C,0.0787*%
%ADD34C,0.0700*%
%ADD35R,0.0780X0.0780*%
%ADD36C,0.0720*%
%ADD37R,0.0720X0.0720*%
%ADD38C,0.0950*%
%ADD39R,0.0950X0.0950*%
%ADD40C,0.0780*%
%ADD41C,0.0866*%
%ADD42R,0.0866X0.0866*%
%ADD43C,0.0810*%
%ADD44C,0.0945*%
%ADD45R,0.0810X0.0810*%
%ADD46C,0.1181*%
%ADD47R,0.1181X0.1181*%
%ADD48C,0.0800*%
%ADD49C,0.1400*%
%ADD50C,0.0500*%
%ADD51C,0.0750*%
%ADD52C,0.0669*%
%ADD53C,0.0670*%
%ADD54C,0.1050*%
%ADD55C,0.0550*%
%ADD56C,0.0098*%
%ADD57C,0.0078*%
%ADD58C,0.0140*%
%ADD59C,0.0140*%
%ADD60C,0.0118*%
%ADD61C,0.0140*%
%ADD62C,0.0140*%
*
G04 Plot Data ***
*
G54D27*
G01X0024208Y-0020333D02*
X0024708Y-0019333D01*
X0024042D01*
X0023758Y-0020333D02*
X0023425D01*
X0023592D02*
Y-0019333D01*
X0023425Y-0019500D01*
X0022975Y-0020333D02*
X0022642D01*
X0022808D02*
Y-0019333D01*
X0022642Y-0019500D01*
X0012312Y-0020333D02*
X0011729D01*
Y-0019333D01*
X0011446Y-0020000D02*
X0010779D01*
X0011446Y-0020333D02*
Y-0019833D01*
X0011196Y-0019333D01*
X0011029D01*
X0010779Y-0019833D01*
Y-0020333D01*
X0010162D02*
Y-0019333D01*
X0010496D02*
X0009829D01*
X0008962Y-0020333D02*
X0008879Y-0020167D01*
Y-0019500D01*
X0008962Y-0019333D01*
X0009462D01*
X0009546Y-0019500D01*
Y-0020167D01*
X0009462Y-0020333D01*
X0008962D01*
X0008262D02*
Y-0019333D01*
X0008596D02*
X0007929D01*
X0024708Y-0018250D02*
X0024264D01*
X0024486Y-0017806D01*
X0024597D01*
Y-0018472D01*
X0010869D02*
Y-0018139D01*
X0011092Y-0018472D02*
Y-0018139D01*
X0011036Y-0018028D01*
X0010925D01*
X0010869Y-0018139D01*
X0010814Y-0018028D01*
X0010703D01*
X0010647Y-0018139D01*
Y-0018472D01*
X0010169D02*
Y-0018139D01*
X0010392Y-0018472D02*
Y-0018139D01*
X0010336Y-0018028D01*
X0010225D01*
X0010169Y-0018139D01*
X0010114Y-0018028D01*
X0010003D01*
X0009947Y-0018139D01*
Y-0018472D01*
X0008742Y-0018250D02*
X0008297D01*
X0008519Y-0017806D01*
X0008630D01*
Y-0018472D01*
X0007986Y-0018139D02*
X0007653D01*
X0007597Y-0018028D01*
Y-0017917D01*
X0007653Y-0017806D01*
X0007986D01*
X0008042Y-0017917D01*
Y-0018028D01*
X0007819Y-0018472D01*
X0007008D02*
X0007342Y-0017806D01*
X0006897D01*
X0006531Y-0018472D02*
X0006642D01*
Y-0018361D01*
X0006531D01*
Y-0018472D01*
X0006164D02*
X0005719D01*
X0006164Y-0018028D01*
Y-0017917D01*
X0006108Y-0017806D01*
X0005775D01*
X0005719Y-0017917D01*
X0024708Y-0016750D02*
X0024264D01*
X0024486Y-0016306D01*
X0024597D01*
Y-0016972D01*
X0010869D02*
Y-0016639D01*
X0011092Y-0016972D02*
Y-0016639D01*
X0011036Y-0016528D01*
X0010925D01*
X0010869Y-0016639D01*
X0010814Y-0016528D01*
X0010703D01*
X0010647Y-0016639D01*
Y-0016972D01*
X0010169D02*
Y-0016639D01*
X0010392Y-0016972D02*
Y-0016639D01*
X0010336Y-0016528D01*
X0010225D01*
X0010169Y-0016639D01*
X0010114Y-0016528D01*
X0010003D01*
X0009947Y-0016639D01*
Y-0016972D01*
X0008686Y-0016639D02*
X0008353D01*
X0008297Y-0016528D01*
Y-0016417D01*
X0008353Y-0016306D01*
X0008686D01*
X0008742Y-0016417D01*
Y-0016528D01*
X0008519Y-0016972D01*
X0007986Y-0016639D02*
X0007653D01*
X0007597Y-0016528D01*
Y-0016417D01*
X0007653Y-0016306D01*
X0007986D01*
X0008042Y-0016417D01*
Y-0016528D01*
X0007819Y-0016972D01*
X0007342Y-0016750D02*
X0006897D01*
X0007119Y-0016306D01*
X0007230D01*
Y-0016972D01*
X0006531D02*
X0006642D01*
Y-0016861D01*
X0006531D01*
Y-0016972D01*
X0006164D02*
X0005942D01*
X0006053D02*
Y-0016306D01*
X0005942Y-0016417D01*
X0024319Y-0015139D02*
X0024653D01*
X0024708Y-0015250D01*
Y-0015361D01*
X0024653Y-0015472D01*
X0024319D01*
X0024264Y-0015361D01*
Y-0015250D01*
X0024486Y-0014806D01*
X0010869Y-0015472D02*
Y-0015139D01*
X0011092Y-0015472D02*
Y-0015139D01*
X0011036Y-0015028D01*
X0010925D01*
X0010869Y-0015139D01*
X0010814Y-0015028D01*
X0010703D01*
X0010647Y-0015139D01*
Y-0015472D01*
X0010169D02*
Y-0015139D01*
X0010392Y-0015472D02*
Y-0015139D01*
X0010336Y-0015028D01*
X0010225D01*
X0010169Y-0015139D01*
X0010114Y-0015028D01*
X0010003D01*
X0009947Y-0015139D01*
Y-0015472D01*
X0008742D02*
X0008297D01*
X0008742Y-0015028D01*
Y-0014917D01*
X0008686Y-0014806D01*
X0008353D01*
X0008297Y-0014917D01*
X0007708Y-0015472D02*
X0008042Y-0014806D01*
X0007597D01*
X0006897Y-0015361D02*
X0007008Y-0015472D01*
X0007230D01*
X0007342Y-0015361D01*
Y-0015250D01*
X0007119Y-0015028D01*
X0007342Y-0014806D01*
X0006897D01*
X0006531Y-0015472D02*
X0006642D01*
Y-0015361D01*
X0006531D01*
Y-0015472D01*
X0006164D02*
X0005942D01*
X0006053D02*
Y-0014806D01*
X0005942Y-0014917D01*
X0024653Y-0013639D02*
X0024319D01*
X0024264Y-0013528D01*
Y-0013417D01*
X0024319Y-0013306D01*
X0024653D01*
X0024708Y-0013417D01*
Y-0013528D01*
X0024486Y-0013972D01*
X0010869D02*
Y-0013639D01*
X0011092Y-0013972D02*
Y-0013639D01*
X0011036Y-0013528D01*
X0010925D01*
X0010869Y-0013639D01*
X0010814Y-0013528D01*
X0010703D01*
X0010647Y-0013639D01*
Y-0013972D01*
X0010169D02*
Y-0013639D01*
X0010392Y-0013972D02*
Y-0013639D01*
X0010336Y-0013528D01*
X0010225D01*
X0010169Y-0013639D01*
X0010114Y-0013528D01*
X0010003D01*
X0009947Y-0013639D01*
Y-0013972D01*
X0008353Y-0013639D02*
X0008686D01*
X0008742Y-0013750D01*
Y-0013861D01*
X0008686Y-0013972D01*
X0008353D01*
X0008297Y-0013861D01*
Y-0013750D01*
X0008519Y-0013306D01*
X0008042Y-0013972D02*
X0007819D01*
X0007930D02*
Y-0013306D01*
X0007819Y-0013417D01*
X0007175Y-0013972D02*
X0007064Y-0013861D01*
X0007008Y-0013750D01*
Y-0013528D01*
X0007064Y-0013417D01*
X0007175Y-0013306D01*
X0007286D01*
X0007397Y-0013417D01*
X0007453Y-0013528D01*
Y-0013750D01*
X0007397Y-0013861D01*
X0007286Y-0013972D01*
X0007175D01*
X0006642D02*
X0006753D01*
Y-0013861D01*
X0006642D01*
Y-0013972D01*
X0006275D02*
X0006053D01*
X0006164D02*
Y-0013306D01*
X0006053Y-0013417D01*
X0024708Y-0012472D02*
X0024264D01*
X0024708Y-0012028D01*
Y-0011917D01*
X0024653Y-0011806D01*
X0024319D01*
X0024264Y-0011917D01*
X0010869Y-0012472D02*
Y-0012139D01*
X0011092Y-0012472D02*
Y-0012139D01*
X0011036Y-0012028D01*
X0010925D01*
X0010869Y-0012139D01*
X0010814Y-0012028D01*
X0010703D01*
X0010647Y-0012139D01*
Y-0012472D01*
X0010169D02*
Y-0012139D01*
X0010392Y-0012472D02*
Y-0012139D01*
X0010336Y-0012028D01*
X0010225D01*
X0010169Y-0012139D01*
X0010114Y-0012028D01*
X0010003D01*
X0009947Y-0012139D01*
Y-0012472D01*
X0008464D02*
X0008353Y-0012361D01*
X0008297Y-0012250D01*
Y-0012028D01*
X0008353Y-0011917D01*
X0008464Y-0011806D01*
X0008575D01*
X0008686Y-0011917D01*
X0008742Y-0012028D01*
Y-0012250D01*
X0008686Y-0012361D01*
X0008575Y-0012472D01*
X0008464D01*
X0007764D02*
X0007653Y-0012361D01*
X0007597Y-0012250D01*
Y-0012028D01*
X0007653Y-0011917D01*
X0007764Y-0011806D01*
X0007875D01*
X0007986Y-0011917D01*
X0008042Y-0012028D01*
Y-0012250D01*
X0007986Y-0012361D01*
X0007875Y-0012472D01*
X0007764D01*
X0007064D02*
X0006953Y-0012361D01*
X0006897Y-0012250D01*
Y-0012028D01*
X0006953Y-0011917D01*
X0007064Y-0011806D01*
X0007175D01*
X0007286Y-0011917D01*
X0007342Y-0012028D01*
Y-0012250D01*
X0007286Y-0012361D01*
X0007175Y-0012472D01*
X0007064D01*
X0006531D02*
X0006642D01*
Y-0012361D01*
X0006531D01*
Y-0012472D01*
X0006164D02*
X0005942D01*
X0006053D02*
Y-0011806D01*
X0005942Y-0011917D01*
X0024708Y-0010750D02*
X0024264D01*
X0024486Y-0010306D01*
X0024597D01*
Y-0010972D01*
X0024008Y-0010750D02*
X0023564D01*
X0023786Y-0010306D01*
X0023897D01*
Y-0010972D01*
X0010869D02*
Y-0010639D01*
X0011092Y-0010972D02*
Y-0010639D01*
X0011036Y-0010528D01*
X0010925D01*
X0010869Y-0010639D01*
X0010814Y-0010528D01*
X0010703D01*
X0010647Y-0010639D01*
Y-0010972D01*
X0010169D02*
Y-0010639D01*
X0010392Y-0010972D02*
Y-0010639D01*
X0010336Y-0010528D01*
X0010225D01*
X0010169Y-0010639D01*
X0010114Y-0010528D01*
X0010003D01*
X0009947Y-0010639D01*
Y-0010972D01*
X0008297Y-0010861D02*
X0008353Y-0010972D01*
X0008686D01*
X0008742Y-0010861D01*
Y-0010639D01*
X0008630Y-0010528D01*
X0008297D01*
Y-0010306D01*
X0008742D01*
X0007653Y-0010639D02*
X0007986D01*
X0008042Y-0010750D01*
Y-0010861D01*
X0007986Y-0010972D01*
X0007653D01*
X0007597Y-0010861D01*
Y-0010750D01*
X0007819Y-0010306D01*
X0007286Y-0010639D02*
X0006953D01*
X0006897Y-0010528D01*
Y-0010417D01*
X0006953Y-0010306D01*
X0007286D01*
X0007342Y-0010417D01*
Y-0010528D01*
X0007119Y-0010972D01*
X0006531D02*
X0006642D01*
Y-0010861D01*
X0006531D01*
Y-0010972D01*
X0005886D02*
X0005775Y-0010861D01*
X0005719Y-0010750D01*
Y-0010528D01*
X0005775Y-0010417D01*
X0005886Y-0010306D01*
X0005997D01*
X0006108Y-0010417D01*
X0006164Y-0010528D01*
Y-0010750D01*
X0006108Y-0010861D01*
X0005997Y-0010972D01*
X0005886D01*
X0024430Y-0009472D02*
X0024319Y-0009361D01*
X0024264Y-0009250D01*
Y-0009028D01*
X0024319Y-0008917D01*
X0024430Y-0008806D01*
X0024542D01*
X0024653Y-0008917D01*
X0024708Y-0009028D01*
Y-0009250D01*
X0024653Y-0009361D01*
X0024542Y-0009472D01*
X0024430D01*
X0023564Y-0009361D02*
X0023675Y-0009472D01*
X0023897D01*
X0024008Y-0009361D01*
Y-0009250D01*
X0023786Y-0009028D01*
X0024008Y-0008806D01*
X0023564D01*
X0010869Y-0009472D02*
Y-0009139D01*
X0011092Y-0009472D02*
Y-0009139D01*
X0011036Y-0009028D01*
X0010925D01*
X0010869Y-0009139D01*
X0010814Y-0009028D01*
X0010703D01*
X0010647Y-0009139D01*
Y-0009472D01*
X0010169D02*
Y-0009139D01*
X0010392Y-0009472D02*
Y-0009139D01*
X0010336Y-0009028D01*
X0010225D01*
X0010169Y-0009139D01*
X0010114Y-0009028D01*
X0010003D01*
X0009947Y-0009139D01*
Y-0009472D01*
X0008742Y-0009250D02*
X0008297D01*
X0008519Y-0008806D01*
X0008630D01*
Y-0009472D01*
X0007653Y-0009139D02*
X0007986D01*
X0008042Y-0009250D01*
Y-0009361D01*
X0007986Y-0009472D01*
X0007653D01*
X0007597Y-0009361D01*
Y-0009250D01*
X0007819Y-0008806D01*
X0007286Y-0009139D02*
X0007342Y-0009028D01*
Y-0008917D01*
X0007286Y-0008806D01*
X0006953D01*
X0006897Y-0008917D01*
Y-0009028D01*
X0006953Y-0009139D01*
X0007286D01*
X0007342Y-0009250D01*
Y-0009361D01*
X0007286Y-0009472D01*
X0006953D01*
X0006897Y-0009361D01*
Y-0009250D01*
X0006953Y-0009139D01*
X0006531Y-0009472D02*
X0006642D01*
Y-0009361D01*
X0006531D01*
Y-0009472D01*
X0005886D02*
X0005775Y-0009361D01*
X0005719Y-0009250D01*
Y-0009028D01*
X0005775Y-0008917D01*
X0005886Y-0008806D01*
X0005997D01*
X0006108Y-0008917D01*
X0006164Y-0009028D01*
Y-0009250D01*
X0006108Y-0009361D01*
X0005997Y-0009472D01*
X0005886D01*
X0024708Y-0007972D02*
X0024264D01*
X0024708Y-0007528D01*
Y-0007417D01*
X0024653Y-0007306D01*
X0024319D01*
X0024264Y-0007417D01*
X0024008Y-0007972D02*
X0023786D01*
X0023897D02*
Y-0007306D01*
X0023786Y-0007417D01*
X0010869Y-0007972D02*
Y-0007639D01*
X0011092Y-0007972D02*
Y-0007639D01*
X0011036Y-0007528D01*
X0010925D01*
X0010869Y-0007639D01*
X0010814Y-0007528D01*
X0010703D01*
X0010647Y-0007639D01*
Y-0007972D01*
X0010169D02*
Y-0007639D01*
X0010392Y-0007972D02*
Y-0007639D01*
X0010336Y-0007528D01*
X0010225D01*
X0010169Y-0007639D01*
X0010114Y-0007528D01*
X0010003D01*
X0009947Y-0007639D01*
Y-0007972D01*
X0008686Y-0007639D02*
X0008353D01*
X0008297Y-0007528D01*
Y-0007417D01*
X0008353Y-0007306D01*
X0008686D01*
X0008742Y-0007417D01*
Y-0007528D01*
X0008519Y-0007972D01*
X0007986Y-0007639D02*
X0007653D01*
X0007597Y-0007528D01*
Y-0007417D01*
X0007653Y-0007306D01*
X0007986D01*
X0008042Y-0007417D01*
Y-0007528D01*
X0007819Y-0007972D01*
X0007008D02*
X0007342Y-0007306D01*
X0006897D01*
X0006531Y-0007972D02*
X0006642D01*
Y-0007861D01*
X0006531D01*
Y-0007972D01*
X0005886D02*
X0005775Y-0007861D01*
X0005719Y-0007750D01*
Y-0007528D01*
X0005775Y-0007417D01*
X0005886Y-0007306D01*
X0005997D01*
X0006108Y-0007417D01*
X0006164Y-0007528D01*
Y-0007750D01*
X0006108Y-0007861D01*
X0005997Y-0007972D01*
X0005886D01*
X0024708Y-0006472D02*
X0024264D01*
X0024708Y-0006028D01*
Y-0005917D01*
X0024653Y-0005806D01*
X0024319D01*
X0024264Y-0005917D01*
X0010869Y-0006472D02*
Y-0006139D01*
X0011092Y-0006472D02*
Y-0006139D01*
X0011036Y-0006028D01*
X0010925D01*
X0010869Y-0006139D01*
X0010814Y-0006028D01*
X0010703D01*
X0010647Y-0006139D01*
Y-0006472D01*
X0010169D02*
Y-0006139D01*
X0010392Y-0006472D02*
Y-0006139D01*
X0010336Y-0006028D01*
X0010225D01*
X0010169Y-0006139D01*
X0010114Y-0006028D01*
X0010003D01*
X0009947Y-0006139D01*
Y-0006472D01*
X0008408D02*
X0008742Y-0005806D01*
X0008297D01*
X0007986Y-0006139D02*
X0008042Y-0006028D01*
Y-0005917D01*
X0007986Y-0005806D01*
X0007653D01*
X0007597Y-0005917D01*
Y-0006028D01*
X0007653Y-0006139D01*
X0007986D01*
X0008042Y-0006250D01*
Y-0006361D01*
X0007986Y-0006472D01*
X0007653D01*
X0007597Y-0006361D01*
Y-0006250D01*
X0007653Y-0006139D01*
X0007008Y-0006472D02*
X0007342Y-0005806D01*
X0006897D01*
X0006531Y-0006472D02*
X0006642D01*
Y-0006361D01*
X0006531D01*
Y-0006472D01*
X0005886D02*
X0005775Y-0006361D01*
X0005719Y-0006250D01*
Y-0006028D01*
X0005775Y-0005917D01*
X0005886Y-0005806D01*
X0005997D01*
X0006108Y-0005917D01*
X0006164Y-0006028D01*
Y-0006250D01*
X0006108Y-0006361D01*
X0005997Y-0006472D01*
X0005886D01*
X0024708Y-0004750D02*
X0024264D01*
X0024486Y-0004306D01*
X0024597D01*
Y-0004972D01*
X0010869D02*
Y-0004639D01*
X0011092Y-0004972D02*
Y-0004639D01*
X0011036Y-0004528D01*
X0010925D01*
X0010869Y-0004639D01*
X0010814Y-0004528D01*
X0010703D01*
X0010647Y-0004639D01*
Y-0004972D01*
X0010169D02*
Y-0004639D01*
X0010392Y-0004972D02*
Y-0004639D01*
X0010336Y-0004528D01*
X0010225D01*
X0010169Y-0004639D01*
X0010114Y-0004528D01*
X0010003D01*
X0009947Y-0004639D01*
Y-0004972D01*
X0008742D02*
X0008519D01*
X0008630D02*
Y-0004306D01*
X0008519Y-0004417D01*
X0008153Y-0004972D02*
X0007931D01*
X0008042D02*
Y-0004306D01*
X0007931Y-0004417D01*
X0007231Y-0004972D02*
X0007564Y-0004306D01*
X0007119D01*
X0006753Y-0004972D02*
X0006864D01*
Y-0004861D01*
X0006753D01*
Y-0004972D01*
X0006108D02*
X0005997Y-0004861D01*
X0005942Y-0004750D01*
Y-0004528D01*
X0005997Y-0004417D01*
X0006108Y-0004306D01*
X0006220D01*
X0006331Y-0004417D01*
X0006386Y-0004528D01*
Y-0004750D01*
X0006331Y-0004861D01*
X0006220Y-0004972D01*
X0006108D01*
X0033112Y-0002833D02*
X0032612D01*
X0033279Y-0003333D02*
X0032612D01*
Y-0002333D01*
X0033279D01*
X0031996Y-0003333D02*
Y-0002333D01*
X0032329D02*
X0031662D01*
X0030796Y-0003333D02*
X0030712Y-0003167D01*
Y-0002500D01*
X0030796Y-0002333D01*
X0031296D01*
X0031379Y-0002500D01*
Y-0003167D01*
X0031296Y-0003333D01*
X0030796D01*
X0030429Y-0002333D02*
Y-0003333D01*
X0030262Y-0003167D01*
X0029929Y-0002500D01*
X0029762Y-0002333D01*
Y-0003333D01*
X0023925D02*
Y-0002833D01*
X0024258Y-0002333D02*
X0024008Y-0002833D01*
X0023842D01*
X0023592Y-0002333D01*
X0022975Y-0003333D02*
Y-0002333D01*
X0023308D02*
X0022642D01*
X0022025Y-0003000D02*
X0022358Y-0003333D01*
X0021692Y-0003167D02*
X0021775Y-0003333D01*
X0022108D01*
X0022192Y-0003167D01*
X0022358Y-0003000D01*
Y-0002500D01*
X0022275Y-0002333D01*
X0021775D01*
X0021692Y-0002500D01*
Y-0003167D01*
X0017408Y-0003333D02*
X0016825D01*
Y-0002333D01*
X0015958Y-0003333D02*
X0015875Y-0003167D01*
Y-0002500D01*
X0015958Y-0002333D01*
X0016458D01*
X0016542Y-0002500D01*
Y-0003167D01*
X0016458Y-0003333D01*
X0015958D01*
X0015258D02*
Y-0002333D01*
X0015592D02*
X0014925D01*
X0009587Y-0003333D02*
Y-0002333D01*
X0009421Y-0002500D01*
X0009254Y-0002833D01*
X0009087Y-0002500D01*
X0008921Y-0002333D01*
Y-0003333D01*
X0008637Y-0003000D02*
X0007971D01*
X0008637Y-0003333D02*
Y-0002833D01*
X0008387Y-0002333D01*
X0008221D01*
X0007971Y-0002833D01*
Y-0003333D01*
X0007687D02*
X0007354D01*
X0007521D02*
Y-0002333D01*
X0007687D02*
X0007354D01*
X0006321Y-0003333D02*
Y-0002333D01*
X0006237Y-0003333D02*
X0006737D01*
X0006904Y-0003000D01*
Y-0002667D01*
X0006737Y-0002333D01*
X0006237D01*
X0003150Y-0003333D02*
Y-0002333D01*
X0002983Y-0002500D01*
X0002817Y-0002833D01*
X0002650Y-0002500D01*
X0002483Y-0002333D01*
Y-0003333D01*
X0001867D02*
Y-0002833D01*
X0002200Y-0002333D02*
X0001950Y-0002833D01*
X0001783D01*
X0001533Y-0002333D01*
X0001250Y-0002500D02*
X0001167Y-0002333D01*
X0000667D01*
X0000583Y-0002500D01*
Y-0002667D01*
X0000667Y-0002833D01*
X0001167D01*
X0001250Y-0003000D01*
Y-0003167D01*
X0001167Y-0003333D01*
X0000667D01*
X0000583Y-0003167D01*
X0023437Y-0001333D02*
Y-0000333D01*
X0023771D02*
X0023104D01*
X0022571Y-0000833D02*
X0022821Y-0001333D01*
X0022154Y-0000833D02*
X0022654D01*
X0022821Y-0000667D01*
Y-0000500D01*
X0022654Y-0000333D01*
X0022154D01*
Y-0001333D01*
X0021871Y-0001000D02*
X0021204D01*
X0021871Y-0001333D02*
Y-0000833D01*
X0021621Y-0000333D01*
X0021454D01*
X0021204Y-0000833D01*
Y-0001333D01*
X0020921Y-0000833D02*
X0020254D01*
X0020921Y-0001333D02*
Y-0000333D01*
X0020254Y-0001333D02*
Y-0000333D01*
X0019971Y-0001167D02*
X0019887Y-0001333D01*
X0019387D01*
X0019304Y-0001167D01*
Y-0000500D01*
X0019387Y-0000333D01*
X0019887D01*
X0019971Y-0000500D01*
X0017696Y-0001333D02*
X0017112D01*
Y-0000333D01*
X0016829Y-0001333D02*
X0016246D01*
Y-0000333D01*
X0015962Y-0001333D02*
X0015629D01*
X0015796D02*
Y-0000333D01*
X0015962D02*
X0015629D01*
X0014929Y-0000833D02*
X0015179Y-0001333D01*
X0014512Y-0000833D02*
X0015012D01*
X0015179Y-0000667D01*
Y-0000500D01*
X0015012Y-0000333D01*
X0014512D01*
Y-0001333D01*
X0013646D02*
Y-0000333D01*
X0013562Y-0001333D02*
X0014062D01*
X0014229Y-0001000D01*
Y-0000667D01*
X0014062Y-0000333D01*
X0013562D01*
X-0095750Y0089250D02*
Y0088750D01*
X-0095250Y0089250D02*
X-0095750D01*
X-0095250Y0088750D02*
Y0089250D01*
X-0095750Y0088750D02*
X-0095250D01*
Y0089250D02*
X-0095750Y0088750D01*
X-0095250D02*
X-0095750Y0089250D01*
Y0086080D02*
Y0085580D01*
X-0095250Y0086080D02*
X-0095750D01*
X-0095250Y0085580D02*
Y0086080D01*
X-0095750Y0085580D02*
X-0095250D01*
Y0086080D02*
X-0095750Y0085580D01*
X-0095250D02*
X-0095750Y0086080D01*
Y0089250D02*
Y0088750D01*
X-0095250Y0089250D02*
X-0095750D01*
X-0095250Y0088750D02*
Y0089250D01*
X-0095750Y0088750D02*
X-0095250D01*
Y0089250D02*
X-0095750Y0088750D01*
X-0095250D02*
X-0095750Y0089250D01*
X-0085000Y0094500D02*
Y0094000D01*
X-0084500Y0094500D02*
X-0085000D01*
X-0084500Y0094000D02*
Y0094500D01*
X-0085000Y0094000D02*
X-0084500D01*
Y0094500D02*
X-0085000Y0094000D01*
X-0084500D02*
X-0085000Y0094500D01*
X-0082250D02*
Y0094000D01*
X-0081750Y0094500D02*
X-0082250D01*
X-0081750Y0094000D02*
Y0094500D01*
X-0082250Y0094000D02*
X-0081750D01*
Y0094500D02*
X-0082250Y0094000D01*
X-0081750D02*
X-0082250Y0094500D01*
X0002325Y-0017750D02*
X0001325Y-0018750D01*
X0002325D02*
X0001325Y-0017750D01*
X0001575Y-0016650D02*
Y-0016850D01*
X0001825Y-0016900D02*
X0001575Y-0016650D01*
X0002075D02*
X0001825Y-0016900D01*
X0002075Y-0016850D02*
Y-0016650D01*
X0001825Y-0016600D02*
X0002075Y-0016850D01*
X0001575D02*
X0001825Y-0016600D01*
Y-0015100D02*
X0001575Y-0015350D01*
X0002075D02*
X0001825Y-0015100D01*
X0001575Y-0015350D02*
X0002075D01*
X0001575Y-0013500D02*
Y-0013750D01*
X0001825Y-0013500D02*
X0001575D01*
X0001825Y-0014000D02*
Y-0013500D01*
X0002075Y-0014000D02*
X0001825D01*
X0002075Y-0013750D02*
Y-0014000D01*
X0001575Y-0013750D02*
X0002075D01*
X0001575Y-0012000D02*
Y-0012500D01*
X0002075Y-0012000D02*
X0001575D01*
X0002075Y-0012500D02*
Y-0012000D01*
X0001575Y-0012500D02*
X0002075D01*
Y-0012250D02*
X0001575D01*
X0001825Y-0012000D02*
Y-0012500D01*
Y-0010500D02*
X0001575Y-0010750D01*
X0002075D02*
X0001825Y-0010500D01*
Y-0011000D02*
X0002075Y-0010750D01*
X0001575D02*
X0001825Y-0011000D01*
X0002075Y-0009250D02*
X0001575D01*
X0001825Y-0009000D02*
Y-0009500D01*
X0002075Y-0007500D02*
X0001575Y-0008000D01*
X0002075D02*
X0001575Y-0007500D01*
Y-0006150D02*
Y-0006350D01*
X0001725Y-0006000D02*
X0001575Y-0006150D01*
X0001925Y-0006000D02*
X0001725D01*
X0002075Y-0006150D02*
X0001925Y-0006000D01*
X0002075Y-0006350D02*
Y-0006150D01*
X0001925Y-0006500D02*
X0002075Y-0006350D01*
X0001725Y-0006500D02*
X0001925D01*
X0001575Y-0006350D02*
X0001725Y-0006500D01*
X0001775Y-0006150D02*
Y-0006100D01*
X0001725Y-0006150D02*
X0001775D01*
X0001725Y-0006100D02*
Y-0006150D01*
X0001775Y-0006100D02*
X0001725D01*
X0001875D02*
Y-0006150D01*
X0001925Y-0006100D02*
X0001875D01*
X0001925Y-0006150D02*
Y-0006100D01*
X0001875Y-0006150D02*
X0001925D01*
X0001775Y-0006400D02*
X0001675Y-0006300D01*
X0001875Y-0006400D02*
X0001775D01*
X0001975Y-0006300D02*
X0001875Y-0006400D01*
X0001575Y-0004500D02*
Y-0005000D01*
X0002075Y-0004500D02*
X0001575D01*
X0002075Y-0005000D02*
Y-0004500D01*
X0001575Y-0005000D02*
X0002075D01*
Y-0004500D02*
X0001575Y-0005000D01*
X0002075D02*
X0001575Y-0004500D01*
X0037300Y-0021050D02*
X-0000050D01*
X0037250Y-0021000D02*
X0000000D01*
X0037250Y-0019000D02*
X0000000D01*
X0037250Y-0017500D02*
X0000000D01*
X0037250Y-0016000D02*
X0000000D01*
X0037250Y-0014500D02*
X0000000D01*
X0037250Y-0013000D02*
X0000000D01*
X0037250Y-0011500D02*
X0000000D01*
X0037250Y-0010000D02*
X0000000D01*
X0037250Y-0008500D02*
X0000000D01*
X0037250Y-0007000D02*
X0000000D01*
X0037250Y-0005500D02*
X0000000D01*
X0037250Y-0004000D02*
X0000000D01*
X0037250Y-0003950D02*
X0000000D01*
X0037250Y-0002000D02*
X0000000D01*
X0037250Y-0001950D02*
X0000000D01*
X0037250Y0000000D02*
X0000000D01*
X0037300Y0000050D02*
X-0000050D01*
X0037300Y-0021000D02*
Y0000000D01*
X0037250Y-0021000D02*
Y0000000D01*
X0025708Y-0021000D02*
Y-0002000D01*
X0020158Y-0021000D02*
Y-0002000D01*
X0012092Y-0019000D02*
Y-0002000D01*
X0003700Y-0019000D02*
Y-0002000D01*
X0003650Y-0019000D02*
Y-0002000D01*
X-0000050Y-0021000D02*
Y0000000D01*
X0000000Y-0021000D02*
Y0000000D01*
X-0071750Y0114250D02*
X-0072750Y0113250D01*
X-0071750D02*
X-0072750Y0114250D01*
X-0097750D02*
X-0098750Y0113250D01*
X-0097750D02*
X-0098750Y0114250D01*
X-0072000Y0081750D02*
X-0073000Y0080750D01*
X-0072000D02*
X-0073000Y0081750D01*
X-0097500Y0081250D02*
X-0098500Y0080250D01*
X-0097500D02*
X-0098500Y0081250D01*
X-0084000Y0103750D02*
X-0084250Y0103500D01*
X-0083750D02*
X-0084000Y0103750D01*
Y0103250D02*
X-0083750Y0103500D01*
X-0084250D02*
X-0084000Y0103250D01*
X-0080000Y0103750D02*
X-0080250Y0103500D01*
X-0079750D02*
X-0080000Y0103750D01*
Y0103250D02*
X-0079750Y0103500D01*
X-0080250D02*
X-0080000Y0103250D01*
X-0091500Y0090250D02*
X-0091750Y0090000D01*
X-0091250D02*
X-0091500Y0090250D01*
Y0089750D02*
X-0091250Y0090000D01*
X-0091750D02*
X-0091500Y0089750D01*
X-0093500Y0090250D02*
X-0093750Y0090000D01*
X-0093250D02*
X-0093500Y0090250D01*
Y0089750D02*
X-0093250Y0090000D01*
X-0093750D02*
X-0093500Y0089750D01*
X-0096750Y0099350D02*
Y0099150D01*
X-0096500Y0099100D02*
X-0096750Y0099350D01*
X-0096250D02*
X-0096500Y0099100D01*
X-0096250Y0099150D02*
Y0099350D01*
X-0096500Y0099400D02*
X-0096250Y0099150D01*
X-0096750D02*
X-0096500Y0099400D01*
X-0096750Y0101350D02*
Y0101150D01*
X-0096500Y0101100D02*
X-0096750Y0101350D01*
X-0096250D02*
X-0096500Y0101100D01*
X-0096250Y0101150D02*
Y0101350D01*
X-0096500Y0101400D02*
X-0096250Y0101150D01*
X-0096750D02*
X-0096500Y0101400D01*
X-0096750Y0105100D02*
Y0104900D01*
X-0096500Y0104850D02*
X-0096750Y0105100D01*
X-0096250D02*
X-0096500Y0104850D01*
X-0096250Y0104900D02*
Y0105100D01*
X-0096500Y0105150D02*
X-0096250Y0104900D01*
X-0096750D02*
X-0096500Y0105150D01*
X-0096750Y0107100D02*
Y0106900D01*
X-0096500Y0106850D02*
X-0096750Y0107100D01*
X-0096250D02*
X-0096500Y0106850D01*
X-0096250Y0106900D02*
Y0107100D01*
X-0096500Y0107150D02*
X-0096250Y0106900D01*
X-0096750D02*
X-0096500Y0107150D01*
X-0094500Y0092000D02*
X-0094750Y0091750D01*
X-0094250D02*
X-0094500Y0092000D01*
Y0091500D02*
X-0094250Y0091750D01*
X-0094750D02*
X-0094500Y0091500D01*
Y0093000D02*
X-0094750Y0092750D01*
X-0094250D02*
X-0094500Y0093000D01*
Y0092500D02*
X-0094250Y0092750D01*
X-0094750D02*
X-0094500Y0092500D01*
X-0081000Y0093250D02*
X-0081250Y0093000D01*
X-0080750D02*
X-0081000Y0093250D01*
Y0092750D02*
X-0080750Y0093000D01*
X-0081250D02*
X-0081000Y0092750D01*
X-0082000Y0093250D02*
X-0082250Y0093000D01*
X-0081750D02*
X-0082000Y0093250D01*
Y0092750D02*
X-0081750Y0093000D01*
X-0082250D02*
X-0082000Y0092750D01*
X-0096750Y0083750D02*
X-0097000Y0083500D01*
X-0096500D02*
X-0096750Y0083750D01*
Y0083250D02*
X-0096500Y0083500D01*
X-0097000D02*
X-0096750Y0083250D01*
X-0097750Y0083750D02*
X-0098000Y0083500D01*
X-0097500D02*
X-0097750Y0083750D01*
Y0083250D02*
X-0097500Y0083500D01*
X-0098000D02*
X-0097750Y0083250D01*
X-0096750Y0084750D02*
X-0097000Y0084500D01*
X-0096500D02*
X-0096750Y0084750D01*
Y0084250D02*
X-0096500Y0084500D01*
X-0097000D02*
X-0096750Y0084250D01*
X-0097750Y0084750D02*
X-0098000Y0084500D01*
X-0097500D02*
X-0097750Y0084750D01*
Y0084250D02*
X-0097500Y0084500D01*
X-0098000D02*
X-0097750Y0084250D01*
X-0096750Y0085750D02*
X-0097000Y0085500D01*
X-0096500D02*
X-0096750Y0085750D01*
Y0085250D02*
X-0096500Y0085500D01*
X-0097000D02*
X-0096750Y0085250D01*
X-0097750Y0085750D02*
X-0098000Y0085500D01*
X-0097500D02*
X-0097750Y0085750D01*
Y0085250D02*
X-0097500Y0085500D01*
X-0098000D02*
X-0097750Y0085250D01*
X-0096750Y0086750D02*
X-0097000Y0086500D01*
X-0096500D02*
X-0096750Y0086750D01*
Y0086250D02*
X-0096500Y0086500D01*
X-0097000D02*
X-0096750Y0086250D01*
X-0097750Y0086750D02*
X-0098000Y0086500D01*
X-0097500D02*
X-0097750Y0086750D01*
Y0086250D02*
X-0097500Y0086500D01*
X-0098000D02*
X-0097750Y0086250D01*
X-0096750Y0087750D02*
X-0097000Y0087500D01*
X-0096500D02*
X-0096750Y0087750D01*
Y0087250D02*
X-0096500Y0087500D01*
X-0097000D02*
X-0096750Y0087250D01*
X-0097750Y0087750D02*
X-0098000Y0087500D01*
X-0097500D02*
X-0097750Y0087750D01*
Y0087250D02*
X-0097500Y0087500D01*
X-0098000D02*
X-0097750Y0087250D01*
X-0090500Y0101650D02*
X-0090750Y0101400D01*
X-0090250D02*
X-0090500Y0101650D01*
X-0090750Y0101400D02*
X-0090250D01*
X-0089500Y0101650D02*
X-0089750Y0101400D01*
X-0089250D02*
X-0089500Y0101650D01*
X-0089750Y0101400D02*
X-0089250D01*
X-0088500Y0101650D02*
X-0088750Y0101400D01*
X-0088250D02*
X-0088500Y0101650D01*
X-0088750Y0101400D02*
X-0088250D01*
X-0091250Y0097000D02*
X-0091500Y0096750D01*
X-0091000D02*
X-0091250Y0097000D01*
Y0096500D02*
X-0091000Y0096750D01*
X-0091500D02*
X-0091250Y0096500D01*
Y0099000D02*
X-0091500Y0098750D01*
X-0091000D02*
X-0091250Y0099000D01*
Y0098500D02*
X-0091000Y0098750D01*
X-0091500D02*
X-0091250Y0098500D01*
X-0089250Y0099000D02*
X-0089500Y0098750D01*
X-0089000D02*
X-0089250Y0099000D01*
Y0098500D02*
X-0089000Y0098750D01*
X-0089500D02*
X-0089250Y0098500D01*
Y0097000D02*
X-0089500Y0096750D01*
X-0089000D02*
X-0089250Y0097000D01*
Y0096500D02*
X-0089000Y0096750D01*
X-0089500D02*
X-0089250Y0096500D01*
X-0083000Y0105500D02*
X-0083250Y0105250D01*
X-0082750D02*
X-0083000Y0105500D01*
Y0105000D02*
X-0082750Y0105250D01*
X-0083250D02*
X-0083000Y0105000D01*
Y0107500D02*
X-0083250Y0107250D01*
X-0082750D02*
X-0083000Y0107500D01*
Y0107000D02*
X-0082750Y0107250D01*
X-0083250D02*
X-0083000Y0107000D01*
X-0081000Y0107500D02*
X-0081250Y0107250D01*
X-0080750D02*
X-0081000Y0107500D01*
Y0107000D02*
X-0080750Y0107250D01*
X-0081250D02*
X-0081000Y0107000D01*
Y0105500D02*
X-0081250Y0105250D01*
X-0080750D02*
X-0081000Y0105500D01*
Y0105000D02*
X-0080750Y0105250D01*
X-0081250D02*
X-0081000Y0105000D01*
X-0097964Y0090754D02*
X-0098214Y0090504D01*
X-0097714D02*
X-0097964Y0090754D01*
Y0090254D02*
X-0097714Y0090504D01*
X-0098214D02*
X-0097964Y0090254D01*
X-0095996Y0090754D02*
X-0096246Y0090504D01*
X-0095746D02*
X-0095996Y0090754D01*
Y0090254D02*
X-0095746Y0090504D01*
X-0096246D02*
X-0095996Y0090254D01*
Y0093214D02*
X-0096246Y0092964D01*
X-0095746D02*
X-0095996Y0093214D01*
Y0092714D02*
X-0095746Y0092964D01*
X-0096246D02*
X-0095996Y0092714D01*
X-0097964Y0093214D02*
X-0098214Y0092964D01*
X-0097714D02*
X-0097964Y0093214D01*
Y0092714D02*
X-0097714Y0092964D01*
X-0098214D02*
X-0097964Y0092714D01*
X-0087984Y0091000D02*
Y0090750D01*
X-0087734Y0091000D02*
X-0087984D01*
X-0087734Y0090500D02*
Y0091000D01*
X-0087484Y0090500D02*
X-0087734D01*
X-0087484Y0090750D02*
Y0090500D01*
X-0087984Y0090750D02*
X-0087484D01*
X-0088968Y0091000D02*
Y0090750D01*
X-0088718Y0091000D02*
X-0088968D01*
X-0088718Y0090500D02*
Y0091000D01*
X-0088468Y0090500D02*
X-0088718D01*
X-0088468Y0090750D02*
Y0090500D01*
X-0088968Y0090750D02*
X-0088468D01*
X-0087000Y0091000D02*
Y0090750D01*
X-0086750Y0091000D02*
X-0087000D01*
X-0086750Y0090500D02*
Y0091000D01*
X-0086500Y0090500D02*
X-0086750D01*
X-0086500Y0090750D02*
Y0090500D01*
X-0087000Y0090750D02*
X-0086500D01*
X-0089250Y0094750D02*
Y0094500D01*
X-0089000Y0094750D02*
X-0089250D01*
X-0089000Y0094250D02*
Y0094750D01*
X-0088750Y0094250D02*
X-0089000D01*
X-0088750Y0094500D02*
Y0094250D01*
X-0089250Y0094500D02*
X-0088750D01*
X-0096000Y0094750D02*
Y0094500D01*
X-0095750Y0094750D02*
X-0096000D01*
X-0095750Y0094250D02*
Y0094750D01*
X-0095500Y0094250D02*
X-0095750D01*
X-0095500Y0094500D02*
Y0094250D01*
X-0096000Y0094500D02*
X-0095500D01*
X-0094000Y0097750D02*
Y0097500D01*
X-0093750Y0097750D02*
X-0094000D01*
X-0093750Y0097250D02*
Y0097750D01*
X-0093500Y0097250D02*
X-0093750D01*
X-0093500Y0097500D02*
Y0097250D01*
X-0094000Y0097500D02*
X-0093500D01*
X-0094000Y0104500D02*
Y0104250D01*
X-0093750Y0104500D02*
X-0094000D01*
X-0093750Y0104000D02*
Y0104500D01*
X-0093500Y0104000D02*
X-0093750D01*
X-0093500Y0104250D02*
Y0104000D01*
X-0094000Y0104250D02*
X-0093500D01*
X-0085234Y0105016D02*
Y0104516D01*
X-0084734Y0105016D02*
X-0085234D01*
X-0084734Y0104516D02*
Y0105016D01*
X-0085234Y0104516D02*
X-0084734D01*
Y0104766D02*
X-0085234D01*
X-0084984Y0105016D02*
Y0104516D01*
X-0085234Y0106984D02*
Y0106484D01*
X-0084734Y0106984D02*
X-0085234D01*
X-0084734Y0106484D02*
Y0106984D01*
X-0085234Y0106484D02*
X-0084734D01*
Y0106734D02*
X-0085234D01*
X-0084984Y0106984D02*
Y0106484D01*
X-0087250Y0106750D02*
X-0087750D01*
X-0087500Y0107000D02*
Y0106500D01*
X-0093250Y0106750D02*
X-0093750D01*
X-0093500Y0107000D02*
Y0106500D01*
X-0086250Y0101500D02*
Y0101250D01*
X-0086000Y0101500D02*
X-0086250D01*
X-0086000Y0101000D02*
Y0101500D01*
X-0085750Y0101000D02*
X-0086000D01*
X-0085750Y0101250D02*
Y0101000D01*
X-0086250Y0101250D02*
X-0085750D01*
X-0079500Y0101500D02*
Y0101250D01*
X-0079250Y0101500D02*
X-0079500D01*
X-0079250Y0101000D02*
Y0101500D01*
X-0079000Y0101000D02*
X-0079250D01*
X-0079000Y0101250D02*
Y0101000D01*
X-0079500Y0101250D02*
X-0079000D01*
X-0085750Y0099000D02*
X-0086250Y0098500D01*
X-0085750D02*
X-0086250Y0099000D01*
X-0086750D02*
X-0087250Y0098500D01*
X-0086750D02*
X-0087250Y0099000D01*
X-0086750Y0096000D02*
X-0087250Y0095500D01*
X-0086750D02*
X-0087250Y0096000D01*
X-0085750D02*
X-0086250Y0095500D01*
X-0085750D02*
X-0086250Y0096000D01*
X-0083250Y0097000D02*
X-0083750Y0096500D01*
X-0083250D02*
X-0083750Y0097000D01*
X-0082250D02*
X-0082750Y0096500D01*
X-0082250D02*
X-0082750Y0097000D01*
X-0081250D02*
X-0081750Y0096500D01*
X-0081250D02*
X-0081750Y0097000D01*
X-0081250Y0100000D02*
X-0081750Y0099500D01*
X-0081250D02*
X-0081750Y0100000D01*
X-0082250D02*
X-0082750Y0099500D01*
X-0082250D02*
X-0082750Y0100000D01*
X-0083250D02*
X-0083750Y0099500D01*
X-0083250D02*
X-0083750Y0100000D01*
X-0081000Y0088250D02*
X-0081500D01*
X-0081250Y0088500D02*
Y0088000D01*
X-0082000Y0088250D02*
X-0082500D01*
X-0082250Y0088500D02*
Y0088000D01*
X-0083000Y0088250D02*
X-0083500D01*
X-0083250Y0088500D02*
Y0088000D01*
X-0084000Y0088250D02*
X-0084500D01*
X-0084250Y0088500D02*
Y0088000D01*
X-0085000Y0088250D02*
X-0085500D01*
X-0085250Y0088500D02*
Y0088000D01*
X-0086000Y0088250D02*
X-0086500D01*
X-0086250Y0088500D02*
Y0088000D01*
X-0087000Y0088250D02*
X-0087500D01*
X-0087250Y0088500D02*
Y0088000D01*
X-0088000Y0088250D02*
X-0088500D01*
X-0088250Y0088500D02*
Y0088000D01*
X-0089000Y0088250D02*
X-0089500D01*
X-0089250Y0088500D02*
Y0088000D01*
X-0090000Y0088250D02*
X-0090500D01*
X-0090250Y0088500D02*
Y0088000D01*
X-0091000Y0088250D02*
X-0091500D01*
X-0091250Y0088500D02*
Y0088000D01*
X-0092000Y0088250D02*
X-0092500D01*
X-0092250Y0088500D02*
Y0088000D01*
X-0093000Y0088250D02*
X-0093500D01*
X-0093250Y0088500D02*
Y0088000D01*
X-0094000Y0088250D02*
X-0094500D01*
X-0094250Y0088500D02*
Y0088000D01*
X-0094000Y0085250D02*
X-0094500D01*
X-0094250Y0085500D02*
Y0085000D01*
X-0093000Y0085250D02*
X-0093500D01*
X-0093250Y0085500D02*
Y0085000D01*
X-0092000Y0085250D02*
X-0092500D01*
X-0092250Y0085500D02*
Y0085000D01*
X-0091000Y0085250D02*
X-0091500D01*
X-0091250Y0085500D02*
Y0085000D01*
X-0090000Y0085250D02*
X-0090500D01*
X-0090250Y0085500D02*
Y0085000D01*
X-0089000Y0085250D02*
X-0089500D01*
X-0089250Y0085500D02*
Y0085000D01*
X-0088000Y0085250D02*
X-0088500D01*
X-0088250Y0085500D02*
Y0085000D01*
X-0087000Y0085250D02*
X-0087500D01*
X-0087250Y0085500D02*
Y0085000D01*
X-0086000Y0085250D02*
X-0086500D01*
X-0086250Y0085500D02*
Y0085000D01*
X-0085000Y0085250D02*
X-0085500D01*
X-0085250Y0085500D02*
Y0085000D01*
X-0084000Y0085250D02*
X-0084500D01*
X-0084250Y0085500D02*
Y0085000D01*
X-0083000Y0085250D02*
X-0083500D01*
X-0083250Y0085500D02*
Y0085000D01*
X-0082000Y0085250D02*
X-0082500D01*
X-0082250Y0085500D02*
Y0085000D01*
X-0081000Y0085250D02*
X-0081500D01*
X-0081250Y0085500D02*
Y0085000D01*
X-0074750Y0101150D02*
X-0075000Y0100900D01*
X-0074500D02*
X-0074750Y0101150D01*
X-0075000Y0100900D02*
X-0074500D01*
X-0075750Y0101150D02*
X-0076000Y0100900D01*
X-0075500D02*
X-0075750Y0101150D01*
X-0076000Y0100900D02*
X-0075500D01*
X-0076750Y0101150D02*
X-0077000Y0100900D01*
X-0076500D02*
X-0076750Y0101150D01*
X-0077000Y0100900D02*
X-0076500D01*
X-0078000Y0089250D02*
X-0078250Y0089000D01*
X-0077750D02*
X-0078000Y0089250D01*
Y0088750D02*
X-0077750Y0089000D01*
X-0078250D02*
X-0078000Y0088750D01*
X-0077000Y0089250D02*
X-0077250Y0089000D01*
X-0076750D02*
X-0077000Y0089250D01*
Y0088750D02*
X-0076750Y0089000D01*
X-0077250D02*
X-0077000Y0088750D01*
X-0076000Y0089250D02*
X-0076250Y0089000D01*
X-0075750D02*
X-0076000Y0089250D01*
Y0088750D02*
X-0075750Y0089000D01*
X-0076250D02*
X-0076000Y0088750D01*
X-0075000Y0089250D02*
X-0075250Y0089000D01*
X-0074750D02*
X-0075000Y0089250D01*
Y0088750D02*
X-0074750Y0089000D01*
X-0075250D02*
X-0075000Y0088750D01*
X-0074000Y0089250D02*
X-0074250Y0089000D01*
X-0073750D02*
X-0074000Y0089250D01*
Y0088750D02*
X-0073750Y0089000D01*
X-0074250D02*
X-0074000Y0088750D01*
Y0093250D02*
X-0074250Y0093000D01*
X-0073750D02*
X-0074000Y0093250D01*
Y0092750D02*
X-0073750Y0093000D01*
X-0074250D02*
X-0074000Y0092750D01*
X-0075000Y0093250D02*
X-0075250Y0093000D01*
X-0074750D02*
X-0075000Y0093250D01*
Y0092750D02*
X-0074750Y0093000D01*
X-0075250D02*
X-0075000Y0092750D01*
X-0076000Y0093250D02*
X-0076250Y0093000D01*
X-0075750D02*
X-0076000Y0093250D01*
Y0092750D02*
X-0075750Y0093000D01*
X-0076250D02*
X-0076000Y0092750D01*
X-0077000Y0093250D02*
X-0077250Y0093000D01*
X-0076750D02*
X-0077000Y0093250D01*
Y0092750D02*
X-0076750Y0093000D01*
X-0077250D02*
X-0077000Y0092750D01*
X-0078000Y0093250D02*
X-0078250Y0093000D01*
X-0077750D02*
X-0078000Y0093250D01*
Y0092750D02*
X-0077750Y0093000D01*
X-0078250D02*
X-0078000Y0092750D01*
X-0075250Y0097350D02*
Y0097150D01*
X-0075100Y0097500D02*
X-0075250Y0097350D01*
X-0074900Y0097500D02*
X-0075100D01*
X-0074750Y0097350D02*
X-0074900Y0097500D01*
X-0074750Y0097150D02*
Y0097350D01*
X-0074900Y0097000D02*
X-0074750Y0097150D01*
X-0075100Y0097000D02*
X-0074900D01*
X-0075250Y0097150D02*
X-0075100Y0097000D01*
X-0075050Y0097350D02*
Y0097400D01*
X-0075100Y0097350D02*
X-0075050D01*
X-0075100Y0097400D02*
Y0097350D01*
X-0075050Y0097400D02*
X-0075100D01*
X-0074950D02*
Y0097350D01*
X-0074900Y0097400D02*
X-0074950D01*
X-0074900Y0097350D02*
Y0097400D01*
X-0074950Y0097350D02*
X-0074900D01*
X-0075050Y0097100D02*
X-0075150Y0097200D01*
X-0074950Y0097100D02*
X-0075050D01*
X-0074850Y0097200D02*
X-0074950Y0097100D01*
X-0075250Y0098350D02*
Y0098150D01*
X-0075100Y0098500D02*
X-0075250Y0098350D01*
X-0074900Y0098500D02*
X-0075100D01*
X-0074750Y0098350D02*
X-0074900Y0098500D01*
X-0074750Y0098150D02*
Y0098350D01*
X-0074900Y0098000D02*
X-0074750Y0098150D01*
X-0075100Y0098000D02*
X-0074900D01*
X-0075250Y0098150D02*
X-0075100Y0098000D01*
X-0075050Y0098350D02*
Y0098400D01*
X-0075100Y0098350D02*
X-0075050D01*
X-0075100Y0098400D02*
Y0098350D01*
X-0075050Y0098400D02*
X-0075100D01*
X-0074950D02*
Y0098350D01*
X-0074900Y0098400D02*
X-0074950D01*
X-0074900Y0098350D02*
Y0098400D01*
X-0074950Y0098350D02*
X-0074900D01*
X-0075050Y0098100D02*
X-0075150Y0098200D01*
X-0074950Y0098100D02*
X-0075050D01*
X-0074850Y0098200D02*
X-0074950Y0098100D01*
X-0096500Y0111500D02*
X-0096750Y0111250D01*
X-0096250D02*
X-0096500Y0111500D01*
Y0111000D02*
X-0096250Y0111250D01*
X-0096750D02*
X-0096500Y0111000D01*
X-0088500Y0111500D02*
X-0088750Y0111250D01*
X-0088250D02*
X-0088500Y0111500D01*
Y0111000D02*
X-0088250Y0111250D01*
X-0088750D02*
X-0088500Y0111000D01*
X-0075500Y0105000D02*
X-0076000Y0104500D01*
X-0075500D02*
X-0076000Y0105000D01*
X-0075500Y0107000D02*
X-0076000Y0106500D01*
X-0075500D02*
X-0076000Y0107000D01*
X-0086000Y0111500D02*
X-0086250Y0111250D01*
X-0085750D02*
X-0086000Y0111500D01*
Y0111000D02*
X-0085750Y0111250D01*
X-0086250D02*
X-0086000Y0111000D01*
X-0077000Y0111500D02*
X-0077250Y0111250D01*
X-0076750D02*
X-0077000Y0111500D01*
Y0111000D02*
X-0076750Y0111250D01*
X-0077250D02*
X-0077000Y0111000D01*
G54D50*
G01X-0101250Y0114500D02*
Y0115250D01*
X-0070250D01*
X-0070000Y0081500D01*
Y0079000D01*
X-0101250D01*
Y0114500D01*
G54D59*
%LPC*%
X-0072250Y0113750D03*
X-0098250D03*
X-0072500Y0081250D03*
X-0098000Y0080750D03*
X-0084000Y0103500D03*
X-0080000D03*
X-0091500Y0090000D03*
X-0093500D03*
X-0096500Y0099250D03*
Y0101250D03*
Y0105000D03*
Y0107000D03*
X-0094500Y0091750D03*
Y0092750D03*
X-0081000Y0093000D03*
X-0082000D03*
X-0096750Y0083500D03*
X-0097750D03*
X-0096750Y0084500D03*
X-0097750D03*
X-0096750Y0085500D03*
X-0097750D03*
X-0096750Y0086500D03*
X-0097750D03*
X-0096750Y0087500D03*
X-0097750D03*
X-0090500Y0101500D03*
X-0089500D03*
X-0088500D03*
X-0091250Y0096750D03*
Y0098750D03*
X-0089250D03*
Y0096750D03*
X-0083000Y0105250D03*
Y0107250D03*
X-0081000D03*
Y0105250D03*
X-0097964Y0090504D03*
X-0095996D03*
Y0092964D03*
X-0097964D03*
X-0087734Y0090750D03*
X-0088718D03*
X-0086750D03*
X-0089000Y0094500D03*
X-0095750D03*
X-0093750Y0097500D03*
Y0104250D03*
X-0084984Y0104766D03*
Y0106734D03*
X-0087500Y0106750D03*
X-0093500D03*
X-0086000Y0101250D03*
X-0079250D03*
X-0086000Y0098750D03*
X-0087000D03*
Y0095750D03*
X-0086000D03*
X-0083500Y0096750D03*
X-0082500D03*
X-0081500D03*
Y0099750D03*
X-0082500D03*
X-0083500D03*
X-0081250Y0088250D03*
X-0082250D03*
X-0083250D03*
X-0084250D03*
X-0085250D03*
X-0086250D03*
X-0087250D03*
X-0088250D03*
X-0089250D03*
X-0090250D03*
X-0091250D03*
X-0092250D03*
X-0093250D03*
X-0094250D03*
Y0085250D03*
X-0093250D03*
X-0092250D03*
X-0091250D03*
X-0090250D03*
X-0089250D03*
X-0088250D03*
X-0087250D03*
X-0086250D03*
X-0085250D03*
X-0084250D03*
X-0083250D03*
X-0082250D03*
X-0081250D03*
X-0074750Y0101000D03*
X-0075750D03*
X-0076750D03*
X-0078000Y0089000D03*
X-0077000D03*
X-0076000D03*
X-0075000D03*
X-0074000D03*
Y0093000D03*
X-0075000D03*
X-0076000D03*
X-0077000D03*
X-0078000D03*
X-0075000Y0097250D03*
Y0098250D03*
X-0096500Y0111250D03*
X-0088500D03*
X-0075750Y0104750D03*
Y0106750D03*
X-0086000Y0111250D03*
X-0077000D03*
%LPD*%
G54D62*
%LPC*%
X-0095500Y0089000D03*
Y0085830D03*
Y0089000D03*
X-0084750Y0094250D03*
X-0082000D03*
%LPD*%
M02*
