%
T1C0.028F200S100
X-095500Y085500
X-095500Y089000
X-089590Y086980
X-084750Y094250
X-084500Y086250
X-082000Y094250
T5C0.038F200S100
X-097964Y090504
X-097964Y092964
X-097750Y083500
X-097750Y084500
X-097750Y085500
X-097750Y086500
X-097750Y087500
X-096750Y083500
X-096750Y084500
X-096750Y085500
X-096750Y086500
X-096750Y087500
X-096500Y111250
X-095996Y090504
X-094500Y091750
X-094500Y092750
X-095996Y092964
X-093500Y090000
X-091500Y090000
X-091250Y096750
X-091250Y098750
X-089250Y096750
X-089250Y098750
X-088500Y111250
X-084000Y103500
X-083000Y105250
X-083000Y107250
X-082000Y093000
X-081000Y093000
X-080000Y103500
X-081000Y105250
X-081000Y107250
X-078000Y089000
X-077000Y089000
X-077000Y093000
X-078000Y093000
X-076000Y089000
X-075000Y089000
X-075000Y093000
X-076000Y093000
X-074000Y089000
X-074000Y093000
T3C0.034F200S100
X-094250Y084250
X-094250Y088250
X-093500Y106750
X-093250Y084250
X-092250Y084250
X-092250Y088250
X-093250Y088250
X-091250Y084250
X-090250Y084250
X-090250Y088250
X-091250Y088250
X-089250Y084250
X-088250Y084250
X-088250Y088250
X-089250Y088250
X-087500Y106750
X-087250Y084250
X-087250Y088250
X-086250Y084250
X-085250Y084250
X-085250Y088250
X-086250Y088250
X-084250Y084250
X-083250Y084250
X-083250Y088250
X-084250Y088250
X-082250Y084250
X-081250Y084250
X-081250Y088250
X-082250Y088250
T7C0.040F200S100
X-095750Y094500
X-093750Y097500
X-093750Y104250
X-089000Y094500
X-088718Y090750
X-087734Y090750
X-086750Y090750
X-086000Y101250
X-079250Y101250
T6C0.039F200S100
X-084984Y104766
X-084984Y106734
T2C0.031F200S100
X-087000Y095750
X-086000Y095750
X-086000Y098750
X-087000Y098750
X-083500Y096750
X-082500Y096750
X-082500Y099750
X-083500Y099750
X-081500Y096750
X-081500Y099750
X-075750Y104750
X-075750Y106750
X-075000Y097000
X-075000Y098000
T8C0.054F200S100
X-090500Y101500
X-089500Y101500
X-088500Y101500
X-076750Y101000
X-075750Y101000
X-074750Y101000
T4C0.035F200S100
X-084250Y111000
X-073621Y111000
T9C0.059F200S100
X-096500Y099250
X-096500Y101250
X-096500Y105000
X-096500Y107000
T10C0.110F200S100
X-100000Y080750
X-072000Y080750
X-072000Y113500
X-100000Y113500
M30
