%
T1C0.028F200S100
X016250Y019250
X016270Y020870
X026750Y027250
X028800Y027260
T4C0.038F200S100
X013750Y016750
X013750Y017750
X013750Y018750
X013750Y019750
X013750Y020750
X013750Y022250
X013750Y024710
X014000Y041250
X014750Y016750
X014750Y017750
X014750Y018750
X014750Y019750
X014750Y020750
X015718Y022250
X015718Y024710
X014750Y025500
X014750Y026500
X018000Y023250
X019500Y026750
X019500Y036750
X020000Y023250
X022000Y041250
X024750Y042250
X029500Y026250
X029500Y033500
X029500Y035500
X030500Y026250
X031500Y033500
X031500Y035500
X033500Y022500
X033500Y026500
X033750Y042250
X034500Y022500
X035500Y022500
X035500Y026500
X034500Y026500
X035500Y039250
X035500Y041250
X036500Y022500
X037500Y022500
X037500Y026500
X036500Y026500
X037500Y039250
X037500Y041250
T3C0.034F200S100
X017250Y018500
X018250Y018500
X018250Y021500
X017250Y021500
X019250Y018500
X020250Y018500
X020250Y021500
X019250Y021500
X021250Y018500
X022250Y018500
X022250Y021500
X021250Y021500
X023250Y018500
X024250Y018500
X024250Y021500
X023250Y021500
X025250Y018500
X025250Y021500
X025750Y039000
X026250Y018500
X027250Y018500
X027250Y021500
X026250Y021500
X028250Y018500
X029250Y018500
X029250Y021500
X028250Y021500
X030250Y018500
X030250Y021500
X031750Y039000
T6C0.040F200S100
X022782Y024000
X023766Y024000
X024750Y024000
T5C0.039F200S100
X033750Y038500
X033750Y040468
T2C0.031F200S100
X023250Y029250
X025000Y028750
X025000Y031750
X023250Y033250
X023250Y034500
X023250Y036250
X026000Y028750
X026000Y031750
X027250Y034500
X027250Y036250
X028250Y028750
X029250Y028750
X029250Y031750
X028250Y031750
X030250Y028750
X030250Y031750
X033250Y030000
X033250Y031000
X035500Y035250
X037500Y035250
T7C0.054F200S100
X021250Y030750
X021250Y031750
X021250Y032750
X035500Y030750
X036500Y030750
X037500Y030750
T8C0.059F200S100
X015000Y028250
X015000Y030250
X015000Y033250
X015000Y035250
T9C0.110F200S100
X011500Y016250
X011750Y043250
X038500Y016500
X039500Y042750
M30
